<svg width="162" height="50" viewBox="0 0 162 50" xmlns="http://www.w3.org/2000/svg" xmlns:xlink="http://www.w3.org/1999/xlink"><title>aubree_full</title><desc>Created with Sketch.</desc><g id="Page-1" stroke="none" stroke-width="1" fill="none" fill-rule="evenodd"><g id="Artboard" transform="translate(-87.000000, -19.000000)" fill="#5d3316" fill-rule="nonzero"><g id="aubree_full" transform="translate(87.000000, 19.000000)"><path d="M118.683985 29.3829619C118.656446 29.3742452 118.630586 29.366199 118.605397 29.3578175L118.603719 29.3571469 118.561066 29.3420604 118.487853 29.3122223 118.475427 29.3068582 118.403892 29.2729971 118.39281 29.2669625C118.332693 29.2361187 118.275265 29.2022577 118.221865 29.1640382L118.207088 29.1529746C118.17787 29.1331944 118.149323 29.1103968 118.121112 29.0872639 117.093768 28.2306788 117.302999 26.0582043 118.214477 24.2628957 121.667279 23.333224 123.795852 22.1386984 125.162733 21.0222879 126.059098 20.2917599 127.163015 18.7807503 126.455057 17.6006406 125.174488 15.4647094 119.560871 15.5954602 114.263955 25.5315134 114.091331 25.8543672 113.921731 26.1832558 113.726606 26.4893467 108.787362 33.1465727 105.541103 27.8679291 108.749076 23.0200927 118.893215 19.0432576 116.228972 13.1215885 109.480878 17.6220972 106.385748 19.6856127 104.256168 23.3013746 103.181469 27.015367 101.57614 30.5231757 99.9862592 34.6394783 97.8788437 35.4957283 95.2824408 36.551457 95.9336413 33.8083728 96.6382395 32.3657559 98.0615423 29.4412969 99.2349779 27.3459318 100.561558 24.3778892 101.170106 23.0210985 102.833536 20.0543969 101.126782 18.8592008 100.623017 18.5061736 100.074586 17.9476332 99.7535197 17.4631847 99.5308555 17.123568 100.208923 15.9401058 100.303966 15.5803736 100.47491 14.9336601 100.610591 14.0479074 100.03865 13.5436788 99.1671374 12.7792897 97.7750685 13.2781542 96.9744177 13.9024053 96.1831718 14.5176044 95.874868 15.3131726 95.9369992 16.2736879 96.0179374 17.5372768 98.140129 18.0210548 97.7908526 18.261435 97.0211002 19.4743999 94.5422433 20.5314696 92.5909944 21.0316751 91.6136916 15.1519134 83.6055135 19.6849422 81.6912084 22.6271699 81.6445259 22.6687419 82.3709547 20.6360703 83.4624446 19.8163634 87.2930704 16.914702 99.349165 7.23176886 98.9703336 1.77309161 98.9223082 1.05060975 98.6344909.556103611 98.2059552.275492332 95.9494254-1.19863885 90.6162371 3.65322072 89.2107345 5.13506285 84.1479003 10.4713708 80.296116 18.2383021 78.0590659 21.995543 77.7823308 22.4283617 76.0362831 23.9397065 74.9330384 24.9495049 74.5887993 25.2616304 74.2452317 25.5761028 73.8999852 25.8885636 72.7208402 26.9496564 71.3778037 28.1009338 69.8426654 28.6021451 67.8756323 29.2388007 68.2349846 27.1994239 68.8895424 26.0558575 69.7459424 24.5666397 70.600663 23.3338946 71.4721756 22.1477503 72.8343552 20.3014823 74.2119835 18.4293994 75.6127847 16.614981 76.7183803 15.1840982 77.8273339 13.7357819 78.5544342 12.1003914 78.9940527 11.1187547 78.6612324 10.5893817 77.611387 10.7100747 74.1260078 11.1204311 72.6577021 14.439154 70.9915845 17.1185391 70.393784 18.0793897 69.8268807 19.0640436 69.2623284 20.0510443 68.422049 21.4768983 67.637184 22.8346948 66.8983295 23.95077 66.4838989 24.5750212 66.06208 25.2301161 65.5475686 25.8778353 64.8883084 26.7072646 62.7053285 29.1046974 61.4462527 28.1542398 58.9186983 26.244608 70.4555791 14.3385765 65.9952475 12.0162415 65.3343082 11.6722664 63.7138652 12.467164 62.7792139 13.2630675 61.4294611 14.4126685 60.0619081 16.1754572 59.4657865 16.8838582 58.5791606 17.8768936 51.4042097 27.5447401 48.1891842 29.3645227 44.703469 31.3371831 50.9716439 21.8564108 51.26685 21.4044825 53.922361 17.3243878 54.6780079 16.006487 57.6895124 12.2150497 58.0216612 11.7922889 58.4851247 11.1432286 57.8856452 10.7026991 57.0608145 10.0992339 55.8803259 10.7228146 55.1448298 11.1670319 52.1081368 12.9985487 48.9045299 16.7457317 46.5989673 19.5558677 44.4502435 22.1735653 42.3871595 24.8579793 39.7675837 27.0562686 38.6767654 27.9735355 37.5493403 28.7600518 36.1304033 29.089946 33.327793 29.7366595 34.7060929 25.5140799 35.2246346 24.4177849 35.8543404 23.0935143 36.659692 21.8031047 37.5328839 20.6236656 38.2841649 19.6074975 39.1445948 18.6660918 40.0601029 17.7937496 42.1846462 15.7500143 45.1555138 13.4454481 48.2247835 12.2525987 50.3345496 11.4325566 51.6570996 11.146246 53.8266457 11.2736441 54.5903528 11.1905 54.6602083 10.6577744 54.1782732 10.1817076 53.9451984 9.96010172 53.6023026 9.81191752 53.2795574 9.71804515 48.3984144 8.25397175 39.6873171 12.5332099 35.4859205 14.7844701 28.5584858 18.502821 10.7037255 31.6335515 3.27924303 25.4306006 2.66800867 24.9203373 1.49658809 23.5736044.557906742 24.4117504.036006632 24.8814474.679481929 25.555652 1.03043792 25.9100201 2.35298789 27.2480364 4.1322844 28.3057766 6.01266967 28.5837059 16.3428663 30.10712 27.8552304 19.7496471 36.8148514 15.4231374 36.8148514 15.4231374 35.9886775 16.236139 35.1329495 17.2043652 34.7420282 17.6747328 34.3709216 18.1608574 34.0750438 18.5785894 31.6149935 22.0780166 28.3673911 29.5847874 34.967043 30.2093739 37.344476 30.4343323 39.433084 29.106709 41.0132255 27.569214 43.1253426 25.5140799 44.9113559 23.2832706 47.0557138 20.8358842 46.2637959 21.7075561 44.575177 25.6421486 44.1516789 28.1408295 43.9414412 29.3742452 44.1399244 30.9868381 45.4433313 31.5453785 47.3929003 32.3801719 50.5004561 29.4127999 51.6769144 28.1552456 54.7764098 24.8438984 57.5545038 21.3853728 59.04699 19.6299597 59.2955142 19.3376145 62.1132373 15.776835 62.1380898 15.7319104 60.3846532 18.6969356 56.5066734 23.5186219 56.6141431 26.563774 56.8458746 33.2109423 64.3919326 29.3594937 66.4298281 26.9821764 66.3938928 29.0121661 67.7171148 30.387396 69.5058146 30.1527151 72.3299191 29.7795726 77.6204548 23.9765849 77.5438825 24.1787457 76.6491963 26.4786184 75.0539418 30.0585076 78.6867563 30.5647477 79.8776561 30.7310359 79.2314935 28.9816576 79.6701051 27.7579644 80.6739399 24.4037041 86.15557 18.6228435 89.7393516 19.4717178 90.5480616 19.6648266 91.0310042 20.2756674 90.5107829 21.5724469 78.3250536 23.8625971 78.4043124 34.1282093 86.6573196 30.0035251 89.8474927 28.4090363 91.9273693 25.8945982 92.516773 22.3700267 94.8162903 21.8373011 97.2031278 20.854994 98.7177791 19.0238126 99.0489209 19.311129 99.2158348 19.9779579 99.1540402 20.3983721 99.0640341 20.9907736 98.7023304 21.5701001 98.4161932 22.0910917 97.0808804 24.5250677 95.2643052 26.9154601 94.0307538 29.407771 93.5333706 30.415893 93.049756 31.4327318 92.7327204 32.5132696 92.1839527 34.3722774 92.4485975 37.270251 94.9731295 37.586735 99.1466513 38.3440836 102.105765 32.5638936 103.547202 28.8884557 106.592628 34.6468541 113.643317 28.7100983 113.866988 27.7254444 114.450348 29.677654 115.40347 30.6653253 116.660195 30.9593469V30.9600174H116.661874C116.752888 30.9808034 116.846252 30.99589 116.940288 31.0089652 116.981933 31.0160056 117.021898 31.0233812 117.065222 31.0284101 117.156235 31.0391384 117.250607 31.0441673 117.344643 31.0485256 117.389646 31.0508725 117.434649 31.0525487 117.481667 31.0532193 117.577383 31.054225 117.675784 31.0525487 117.774186 31.0475199L117.915912 31.0381326C118.016665 31.0300864 118.119432 31.0200287 118.223545 31.0069536 118.266197 31.0009189 118.308849 30.9935432 118.350828 30.9868381 118.464344 30.9690694 118.577859 30.9509654 118.693725 30.9268268L118.735705 30.9177748C119.153158 30.8285961 119.590426 30.6971748 120.047172 30.5308866L120.127774 30.5017192C120.263119 30.4514304 120.400815 30.3957776 120.539182 30.3397893L120.652362 30.2935237C120.790728 30.2361945 120.931111 30.1751775 121.07183 30.1111431L121.184337 30.0601839C121.330428 29.9938027 121.477863 29.9254099 121.627986 29.8519883L121.710603 29.8114221C125.144262 28.1314423 129.397714 25.0252733 134.055186 22.2144668L134.065933 22.2077616C134.336287 22.0444908 134.608319 21.8832314 134.880688 21.7226427L134.933415 21.6907932C135.199068 21.5352332 135.466063 21.3803439 135.734737 21.2264603L135.780748 21.1996395C136.050094 21.0467618 136.319104 20.8948897 136.589457 20.7453644L136.64185 20.716197C137.484816 20.2508584 138.339536 19.8039589 139.200974 19.3858916L139.385016 19.2977187C139.606672 19.1911065 139.829672 19.0871764 140.052335 18.9839168L140.263245 18.8873624C140.483222 18.7884612 140.704207 18.690901 140.925191 18.5953523L141.12804 18.5078499C141.352385 18.4129718 141.578407 18.3197699 141.804093 18.2282444L141.997539 18.1497939C142.576197 17.9211477 143.157541 17.7089291 143.739221 17.5164908L143.846355 17.4822944C144.096222 17.4008266 144.346425 17.3233819 144.596628 17.2492898 144.67488 17.2261571 144.754139 17.2043652 144.833397 17.1819029 145.03759 17.1228974 145.24279 17.0669093 145.446982 17.0136032 145.544713 16.9877883 145.643115 16.9636497 145.741517 16.9398463 145.935634 16.8922397 146.130759 16.8463093 146.324876 16.8040667 146.420256 16.7832807 146.515299 16.7624946 146.611015 16.7423792 146.813528 16.7008071 147.017049 16.6622524 147.219562 16.6260445 147.305538 16.6109579 147.391514 16.5941949 147.47749 16.5801141 147.714259 16.5408889 147.951028 16.5066925 148.187798 16.4758487 148.240525 16.4694788 148.291238 16.4610974 148.343629 16.4543921 148.633797 16.4195253 148.924974 16.3903579 149.216821 16.368566 149.261824 16.3652135 149.306827 16.3635372 149.352837 16.3605198 149.593637 16.3437569 149.835779 16.3313523 150.077251 16.3246472 150.167257 16.3219651 150.257263 16.3229709 150.347604 16.3212946 150.542394 16.3196183 150.736846 16.3196183 150.930964 16.3229709 151.038098 16.3253177 151.145568 16.3303466 151.251022 16.3343697 151.432042 16.3410748 151.612389 16.3528089 151.792737 16.3652135 151.901886 16.3735949 152.011707 16.3826469 152.121863 16.3927047 152.306913 16.4104734 152.491291 16.4326004 152.67634 16.456739 152.776422 16.4694788 152.876502 16.4818834 152.976584 16.4969701 153.185814 16.5284843 153.394037 16.5660332 153.603604 16.6065995 153.679503 16.6206804 153.754396 16.6324144 153.830297 16.6491773 154.113748 16.7081828 154.397536 16.7748992 154.67998 16.8523439 154.724983 16.8640779 154.769986 16.8798351 154.815996 16.8922397 155.052094 16.9589561 155.288863 17.0303661 155.523954 17.1088166 155.620676 17.1410014 155.718071 17.1785504 155.814793 17.2127467 155.997492 17.2784573 156.179855 17.3458443 156.362554 17.4189306 156.471703 17.4631847 156.580852 17.5107914 156.690336 17.5563866 156.863632 17.6304786 157.037263 17.7089291 157.210557 17.7903969 157.318363 17.841021 157.424825 17.8936565 157.531959 17.9469626 157.708612 18.0351356 157.884258 18.1290079 158.059568 18.2248918 158.162673 18.2805447 158.266112 18.3372034 158.369888 18.3962088 158.558967 18.5044973 158.745696 18.6218377 158.934104 18.7391782 159.020751 18.7941606 159.108407 18.8467961 159.196061 18.9034548 159.470445 19.0794655 159.74315 19.2702275 160.014846 19.4700415 162.204543 21.084646 162.065169 19.5481568 161.054617 18.4005672 158.329922 15.3098201 150.480598 14.6255576 146.028327 15.7966152 137.279951 18.0984994 130.622534 23.6651299 121.964836 28.5535327 121.889944 28.5961105 121.81673 28.6360062 121.743852 28.6752314L121.738142 28.678584C121.665599 28.717474 121.594737 28.7553582 121.524881 28.7898898H121.523874C121.453012 28.8267682 121.38282 28.8609646 121.313636 28.8941552L121.311957 28.8951609C121.242774 28.9273457 121.176276 28.9591953 121.109443 28.9883628L121.108436 28.9890333C121.042611 29.0182008 120.977793 29.0463624 120.914319 29.0721773L120.905251 29.0765357C120.844128 29.1013448 120.785355 29.1248129 120.72759 29.1472752L120.718187 29.1502925H120.717515L120.70744 29.1536451C120.65169 29.1757722 120.59594 29.1955524 120.540861 29.2146622L120.524741 29.2203616C120.465633 29.240477 120.408876 29.2589163 120.352118 29.2760144H120.351782C120.296368 29.2937832 120.242969 29.3085345 120.188898 29.3236212L120.168076 29.3296558C120.114677 29.3437366 120.061949 29.3571469 120.011237 29.3685458H120.009558C119.956495 29.3812856 119.904439 29.3920138 119.852719 29.4017364L119.841972 29.4034127C119.796969 29.4127999 119.750959 29.4191698 119.706292 29.4268808L119.673714 29.4309038 119.553819 29.4449847 119.529303 29.4476668 119.420153 29.4553777 119.37112 29.4577245 119.279099 29.4600713H119.234096L119.145097 29.4577245 119.101774 29.4543719 119.020836 29.4476668 118.968108 29.4419674 118.90732 29.4319097 118.839145 29.4201756 118.827055 29.4174935 118.78138 29.407771 118.735705 29.3970428 118.690366 29.3846382 118.683985 29.3829619zM122.407813 18.8592008C127.313136 15.5347785 126.271015 21.1641023 118.825039 23.0257921 119.342574 21.4229217 121.304568 19.6098443 122.407813 18.8592008zM112.13068 17.7186517C113.01294 17.0635567 114.076218 16.764171 114.216265 17.3099716 114.757308 19.42914 110.938437 21.1121371 109.110779 21.804781 109.487594 20.6320471 110.634163 18.8266807 112.13068 17.7186517zM97.9241828 1.36441162C98.8161815 3.79805234 92.6944342 10.3714638 91.4071475 11.6216423 88.5769987 14.371767 85.3821237 17.0152795 83.3855363 18.2939551 84.1878655 16.8225059 96.5334563-2.42702563 97.9241828 1.36441162zM82.3444233 28.2165979C81.7123664 27.3187759 83.5665559 25.7403794 84.2120465 25.2958267 85.2941326 24.5482005 87.2003779 23.7408983 89.7417025 23.0777571 87.0660408 28.4445737 83.1151826 29.3112166 82.3444233 28.2165979z" id="Shape"/><path d="M26.9400269 44.5365255V49.907919H25.8559489V47.7056476H23.7279441V49.907919H22.6438662V44.5365255H23.7279441V46.6543891H25.8559489V44.5365255H26.9400269zM33.1433618 48.7569061H30.968514L30.5536201 49.907919H29.4427747L31.5306286 44.5365255H32.6013227L34.6958684 49.907919H33.5582558L33.1433618 48.7569061zM32.8020779 47.8130755 32.0592837 45.7565991 31.3164897 47.8130755H32.8020779zM39.1727088 50C38.5035215 50 37.9826785 49.7877043 37.6101643 49.3631062 37.23765 48.9385082 37.0513958 48.3323142 37.0513958 47.5445059V44.5365255H38.1354737V47.4984654C38.1354737 48.4602054 38.4834458 48.9410682 39.1794006 48.9410682 39.5184555 48.9410682 39.777204 48.8246891 39.955654 48.5919275 40.1341039 48.359166 40.2233275 47.9946822 40.2233275 47.4984654V44.5365255H41.2940218V47.5445059C41.2940218 48.3323142 41.1077674 48.9385082 40.7352531 49.3631062 40.3627389 49.7877043 39.841896 50 39.1727088 50zM45.2622823 45.5494168H43.7633104V44.5365255h4.0820218V45.5494168H46.3463602V49.907919H45.2622823V45.5494168zM54.0620508 48.9103745V49.907919H50.435074V44.5365255H53.9750569V45.53407H51.5124601V46.7004297H53.6873077V47.6672806H51.5124601V48.9103745H54.0620508zM63.0759581 50C62.5986042 50 62.1669853 49.8810632 61.781087 49.643186 61.3951891 49.4053088 61.0918288 49.0753551 60.8709972 48.6533149 60.6501651 48.2312747 60.539751 47.7542486 60.539751 47.2222223 60.539751 46.6901958 60.6501651 46.2131697 60.8709972 45.7911295 61.0918288 45.3690893 61.3951891 45.0391355 61.781087 44.8012584 62.1669853 44.5633812 62.6008348 44.4444444 63.08265 44.4444444 63.4886233 44.4444444 63.8555555 44.5262934 64.1834575 44.6899938 64.5113594 44.8536942 64.7868372 45.0890101 65.0098993 45.3959484L64.3139482 46.1325967C63.9971999 45.7131143 63.6046156 45.5033763 63.1361846 45.5033763 62.8462036 45.5033763 62.5874549 45.5762731 62.359931 45.7220687 62.1324076 45.8678644 61.9550757 46.071208 61.8279298 46.3321056 61.7007844 46.5930031 61.6372126 46.8897057 61.6372126 47.2222223 61.6372126 47.5547387 61.7007844 47.8514413 61.8279298 48.1123388 61.9550757 48.3732364 62.1324076 48.57658 62.359931 48.7223757 62.5874549 48.8681715 62.8462036 48.9410682 63.1361846 48.9410682 63.6046156 48.9410682 63.9971999 48.7287724 64.3139482 48.3041744L65.0098993 49.0408226C64.7868372 49.3528766 64.5102441 49.5907501 64.1801116 49.7544506 63.849979 49.918151 63.4819315 50 63.0759581 50zM72.0430227 44.5365255V49.907919H70.9589442V47.7056476H68.8309399V49.907919H67.746862V44.5365255H68.8309399V46.6543891H70.9589442V44.5365255H72.0430227zM77.4299531 50C76.9436768 50 76.5053655 49.8797843 76.1150064 49.6393494 75.7246474 49.3989144 75.4190564 49.0676818 75.1982243 48.6456415 74.9773928 48.2236013 74.8669786 47.7491329 74.8669786 47.2222223 74.8669786 46.6953115 74.9773928 46.2208431 75.1982243 45.7988029 75.4190564 45.3767628 75.7246474 45.0455301 76.1150064 44.8050952 76.5053655 44.5646602 76.9436768 44.4444444 77.4299531 44.4444444 77.916229 44.4444444 78.3534249 44.5646602 78.7415533 44.8050952 79.1296818 45.0455301 79.4352728 45.3767628 79.6583355 45.7988029 79.8813976 46.2208431 79.9929271 46.6953115 79.9929271 47.2222223 79.9929271 47.7491329 79.8813976 48.2236013 79.6583355 48.6456415 79.4352728 49.0676818 79.1296818 49.3989144 78.7415533 49.6393494 78.3534249 49.8797843 77.916229 50 77.4299531 50zm0-1.0589318000000034C77.7065505 48.9410682 77.9563762 48.8681715 78.1794389 48.7223757 78.402501 48.57658 78.5776029 48.3732364 78.7047483 48.1123388 78.8318936 47.8514413 78.8954655 47.5547387 78.8954655 47.2222223 78.8954655 46.8897057 78.8318936 46.5930031 78.7047483 46.3321056 78.5776029 46.071208 78.402501 45.8678644 78.1794389 45.7220687 77.9563762 45.5762731 77.7065505 45.5033763 77.4299531 45.5033763 77.1533552 45.5033763 76.9035295 45.5762731 76.6804668 45.7220687 76.4574047 45.8678644 76.2823033 46.071208 76.1551574 46.3321056 76.0280121 46.5930031 75.9644402 46.8897057 75.9644402 47.2222223 75.9644402 47.5547387 76.0280121 47.8514413 76.1551574 48.1123388 76.2823033 48.3732364 76.4574047 48.57658 76.6804668 48.7223757 76.9035295 48.8681715 77.1533552 48.9410682 77.4299531 48.9410682zM85.0586496 50C84.5812956 50 84.1496767 49.8810632 83.7637784 49.643186 83.3778806 49.4053088 83.0745202 49.0753551 82.8536887 48.6533149 82.6328566 48.2312747 82.5224424 47.7542486 82.5224424 47.2222223 82.5224424 46.6901958 82.6328566 46.2131697 82.8536887 45.7911295 83.0745202 45.3690893 83.3778806 45.0391355 83.7637784 44.8012584 84.1496767 44.5633812 84.5835263 44.4444444 85.0653414 44.4444444 85.4713147 44.4444444 85.838247 44.5262934 86.1661489 44.6899938 86.4940508 44.8536942 86.7695286 45.0890101 86.9925907 45.3959484L86.2966396 46.1325967C85.9798913 45.7131143 85.587307 45.5033763 85.1188761 45.5033763 84.8288951 45.5033763 84.5701463 45.5762731 84.3426224 45.7220687 84.1150991 45.8678644 83.9377671 46.071208 83.8106212 46.3321056 83.6834759 46.5930031 83.619904 46.8897057 83.619904 47.2222223 83.619904 47.5547387 83.6834759 47.8514413 83.8106212 48.1123388 83.9377671 48.3732364 84.1150991 48.57658 84.3426224 48.7223757 84.5701463 48.8681715 84.8288951 48.9410682 85.1188761 48.9410682 85.587307 48.9410682 85.9798913 48.7287724 86.2966396 48.3041744L86.9925907 49.0408226C86.7695286 49.3528766 86.4929355 49.5907501 86.162803 49.7544506 85.8326704 49.918151 85.4646229 50 85.0586496 50zM91.8977093 50C91.4114329 50 90.9731216 49.8797843 90.5827626 49.6393494 90.192403 49.3989144 89.8868126 49.0676818 89.6659805 48.6456415 89.4451489 48.2236013 89.3347348 47.7491329 89.3347348 47.2222223 89.3347348 46.6953115 89.4451489 46.2208431 89.6659805 45.7988029 89.8868126 45.3767628 90.192403 45.0455301 90.5827626 44.8050952 90.9731216 44.5646602 91.4114329 44.4444444 91.8977093 44.4444444 92.3839856 44.4444444 92.8211811 44.5646602 93.2093095 44.8050952 93.5974384 45.0455301 93.9030289 45.3767628 94.1260916 45.7988029 94.3491537 46.2208431 94.4606832 46.6953115 94.4606832 47.2222223 94.4606832 47.7491329 94.3491537 48.2236013 94.1260916 48.6456415 93.9030289 49.0676818 93.5974384 49.3989144 93.2093095 49.6393494 92.8211811 49.8797843 92.3839856 50 91.8977093 50zm0-1.0589318000000034C92.1743066 48.9410682 92.4241323 48.8681715 92.6471956 48.7223757 92.8702572 48.57658 93.0453585 48.3732364 93.1725039 48.1123388 93.2996498 47.8514413 93.3632216 47.5547387 93.3632216 47.2222223 93.3632216 46.8897057 93.2996498 46.5930031 93.1725039 46.3321056 93.0453585 46.071208 92.8702572 45.8678644 92.6471956 45.7220687 92.4241323 45.5762731 92.1743066 45.5033763 91.8977093 45.5033763 91.6211119 45.5033763 91.3712856 45.5762731 91.148223 45.7220687 90.9251608 45.8678644 90.7500595 46.071208 90.6229136 46.3321056 90.4957682 46.5930031 90.4321964 46.8897057 90.4321964 47.2222223 90.4321964 47.5547387 90.4957682 47.8514413 90.6229136 48.1123388 90.7500595 48.3732364 90.9251608 48.57658 91.148223 48.7223757 91.3712856 48.8681715 91.6211119 48.9410682 91.8977093 48.9410682zM97.2846397 44.5365255H98.3687176V48.8950277H100.717553V49.907919H97.2846397V44.5365255zM106.459151 48.7569061H104.284303L103.869409 49.907919H102.758563L104.846417 44.5365255H105.917112L108.011657 49.907919H106.874045L106.459151 48.7569061zM106.117867 47.8130755 105.375073 45.7565991 104.632279 47.8130755H106.117867zM111.243816 45.5494168H109.744844V44.5365255H113.826865V45.5494168H112.327894V49.907919H111.243816V45.5494168zm8.799768 3.3609577V49.907919H116.416607V44.5365255H119.95659V45.53407H117.493993V46.7004297H119.668841V47.6672806H117.493993V48.9103745H120.043584zM125.898943 49.907919 124.995545 48.4116023H123.998461V49.907919H122.914384V44.5365255H124.94201C125.356907 44.5365255 125.717147 44.6158166 126.022742 44.7744015 126.328338 44.9329862 126.563666 45.1580709 126.728732 45.4496624 126.893798 45.7412538 126.97633 46.0865541 126.97633 46.4855739 126.97633 46.8845938 126.892683 47.2286153 126.725386 47.5176489 126.558088 47.8066824 126.320531 48.0279305 126.012705 48.1813997L127.063323 49.907919H125.898943zM125.878868 46.4855739C125.878868 46.1837512 125.794106 45.9522721 125.624578 45.7911295 125.455051 45.6299869 125.207455 45.5494168 124.881783 45.5494168H123.998461V47.4217311H124.881783C125.207455 47.4217311 125.455051 47.3398821 125.624578 47.1761818 125.794106 47.0124813 125.878868 46.7822809 125.878868 46.4855739zM129.840437 44.5365255H130.924514V49.907919H129.840437V44.5365255zM137.669888 48.9103745V49.907919H134.042912V44.5365255H137.582895V45.53407H135.120298V46.7004297H137.295145V47.6672806H135.120298V48.9103745H137.669888z" id="HAUTE-CHOCOLATERIE"/></g></g></g></svg>