<svg xmlns="http://www.w3.org/2000/svg" xmlns:xlink="http://www.w3.org/1999/xlink" width="134" height="39" viewBox="0 0 134 39">
    <defs>
        <path id="ttmqx0ue2a" d="M0 38.27L133.886 38.27 133.886 0 0 0z"/>
    </defs>
    <g fill="none" fill-rule="evenodd">
        <path fill="#545454" d="M63.84 14.887c-.63.364-1.121.876-1.472 1.535-.35.66-.526 1.41-.526 2.251 0 .855.176 1.613.526 2.272.35.659.841 1.17 1.473 1.535.63.365 1.346.547 2.145.547.8 0 1.515-.182 2.146-.547.631-.364 1.122-.876 1.472-1.535.35-.66.526-1.417.526-2.272 0-.842-.175-1.592-.526-2.251-.35-.66-.841-1.171-1.472-1.535-.631-.365-1.346-.548-2.146-.548-.799 0-1.514.183-2.145.548m5.006-1.063c.841.47 1.5 1.125 1.977 1.967.477.842.715 1.795.715 2.86 0 1.08-.238 2.044-.715 2.893-.477.849-1.136 1.507-1.977 1.977-.841.47-1.795.705-2.86.705-1.066 0-2.02-.235-2.861-.705-.842-.47-1.5-1.128-1.978-1.977-.476-.849-.715-1.812-.715-2.892 0-1.066.239-2.02.715-2.861.477-.842 1.136-1.497 1.978-1.967.841-.47 1.795-.705 2.86-.705 1.066 0 2.02.235 2.86.705"/>
        <mask id="vgknso8n1b" fill="#fff">
            <use xlink:href="#ttmqx0ue2a"/>
        </mask>
        <path fill="#545454" d="M74.211 24.184L75.62 24.184 75.62 8.576 74.211 8.576zM86.032 22.49c.632-.37 1.126-.886 1.483-1.545.358-.66.537-1.41.537-2.251 0-.842-.179-1.595-.537-2.262-.357-.665-.851-1.188-1.483-1.567-.63-.378-1.346-.567-2.145-.567-.8 0-1.515.189-2.146.567-.63.379-1.129.902-1.493 1.567-.365.667-.547 1.42-.547 2.262 0 .84.179 1.592.536 2.25.358.66.856 1.175 1.494 1.547.638.371 1.356.557 2.156.557s1.514-.186 2.145-.557zm3.429-13.914v15.608h-1.41v-2.525c-.42.828-1.009 1.47-1.766 1.925-.758.456-1.641.683-2.65.683-1.039 0-1.964-.238-2.777-.714-.814-.477-1.445-1.143-1.893-1.998-.45-.856-.674-1.823-.674-2.903s.228-2.041.684-2.882c.456-.842 1.087-1.5 1.893-1.978.806-.476 1.722-.715 2.745-.715 1.01 0 1.897.232 2.661.694.765.463 1.357 1.109 1.778 1.935v-7.13h1.409zM101.45 18.041c-.07-1.15-.451-2.064-1.146-2.745-.694-.68-1.602-1.02-2.724-1.02-1.108 0-2.033.344-2.776 1.031-.744.687-1.171 1.599-1.283 2.734h7.93zm.022-3.292c.897 1.087 1.31 2.55 1.24 4.387h-9.191c.098 1.177.532 2.128 1.304 2.85.77.722 1.725 1.083 2.86 1.083.702 0 1.354-.126 1.957-.379.603-.252 1.122-.61 1.557-1.073l.799.8c-.533.575-1.175 1.02-1.925 1.336-.75.315-1.574.473-2.471.473-1.066 0-2.013-.235-2.84-.705-.828-.47-1.476-1.125-1.946-1.966-.47-.842-.704-1.802-.704-2.882 0-1.066.234-2.023.704-2.871.47-.849 1.118-1.508 1.946-1.978.827-.47 1.76-.705 2.797-.705 1.711 0 3.015.544 3.913 1.63zM114.103 14.266c.75.765 1.125 1.812 1.125 3.144v6.774h-1.43v-6.437c0-1.037-.288-1.851-.862-2.44-.575-.589-1.375-.884-2.398-.884-1.136.015-2.044.365-2.724 1.052-.68.687-1.07 1.613-1.168 2.777v5.932h-1.409V13.16h1.409v2.567c.379-.856.936-1.5 1.673-1.935.735-.435 1.63-.659 2.681-.674 1.318 0 2.353.383 3.103 1.147M127.439 17.169c.764-.638 1.146-1.56 1.146-2.766 0-1.178-.378-2.076-1.136-2.693-.757-.617-1.844-.926-3.26-.926h-3.913v7.342h3.913c1.402 0 2.485-.32 3.25-.957m1.041-6.416c.996.848 1.494 2.05 1.494 3.608 0 1.612-.498 2.86-1.494 3.744-.996.883-2.405 1.325-4.228 1.325h-3.976v4.754h-1.45V9.48h5.426c1.823 0 3.232.425 4.228 1.273M132.203 24.184h1.41V13.16h-1.41v11.023zm1.41-14.904c.182.19.273.425.273.705 0 .281-.095.52-.284.715-.19.197-.417.295-.683.295-.281 0-.516-.098-.705-.295-.19-.196-.284-.434-.284-.715 0-.28.094-.515.284-.705.19-.189.424-.283.705-.283.28 0 .511.094.694.283zM56.69 21.68c-.59.421-1.231.747-1.925.979-.695.231-1.392.347-2.094.347-1.135 0-2.184-.277-3.144-.83-.961-.555-1.722-1.305-2.282-2.252-.562-.946-.842-1.987-.842-3.123 0-1.122.28-2.153.842-3.093.56-.939 1.317-1.686 2.271-2.24.954-.554 1.999-.83 3.134-.83.842 0 1.655.15 2.44.452.786.302 1.48.733 2.083 1.293l.841-1.03c-.715-.631-1.539-1.122-2.471-1.473-.933-.35-1.897-.525-2.893-.525-1.402 0-2.696.333-3.88.998-1.186.667-2.122 1.568-2.808 2.704-.688 1.135-1.031 2.383-1.031 3.744 0 1.36.343 2.615 1.03 3.765s1.617 2.061 2.788 2.734c1.17.674 2.45 1.01 3.838 1.01.982 0 1.946-.172 2.893-.515.946-.344 1.777-.817 2.492-1.42v-4.097H56.69v3.402z" mask="url(#vgknso8n1b)"/>
        <path fill="#545454" d="M52.136 18.278L56.689 18.278 57.972 18.278 57.972 16.99 57.972 16.875 52.136 16.875z" mask="url(#vgknso8n1b)"/>
        <path fill="#EC9B26" d="M15.445 1.27L16.608.16c.23-.22.595-.212.815.018l9.638 10.092c.22.23.212.595-.018.815l-1.163 1.11c-.23.22-.595.212-.815-.018L15.427 2.086c-.22-.23-.212-.596.018-.816" mask="url(#vgknso8n1b)"/>
        <path fill="#EC9B26" d="M18.327 3.754l1.11 1.162c.22.23.211.596-.02.816l-5.865 5.608c-.23.22-.596.212-.816-.019l-1.11-1.162c-.22-.23-.212-.596.018-.816l5.867-5.608c.23-.22.595-.212.816.019M22.421 8.04l1.11 1.163c.22.23.212.596-.018.816l-7.677 7.332c-.23.22-.595.211-.816-.02l-1.11-1.161c-.22-.23-.211-.596.019-.816l7.676-7.332c.23-.22.596-.212.816.019M36.796 15.474l1.133 1.14c.225.225.223.59-.003.815l-9.895 9.839c-.227.224-.592.223-.817-.003l-1.133-1.14c-.224-.226-.223-.591.003-.816l9.896-9.838c.226-.224.591-.224.816.003" mask="url(#vgknso8n1b)"/>
        <path fill="#EC9B26" d="M34.37 18.404l-1.14 1.133c-.226.225-.591.224-.815-.003l-5.81-5.842c-.224-.227-.224-.592.003-.816l1.14-1.133c.225-.225.59-.224.815.002l5.81 5.843c.224.226.223.591-.003.816M30.166 22.584l-1.14 1.133c-.226.225-.591.223-.816-.003l-7.484-7.528c-.225-.226-.224-.59.002-.816l1.14-1.133c.226-.225.591-.223.816.003l7.484 7.528c.225.226.224.591-.002.816M22.738 36.983l-1.15 1.123c-.228.222-.593.218-.816-.01l-9.745-9.99c-.222-.227-.217-.593.01-.815l1.151-1.122c.228-.223.593-.218.816.01l9.745 9.989c.222.228.217.593-.01.815" mask="url(#vgknso8n1b)"/>
        <path fill="#EC9B26" d="M19.831 34.53l-1.122-1.15c-.223-.228-.218-.594.01-.816l5.897-5.754c.228-.222.594-.218.816.01l1.123 1.151c.222.228.218.593-.01.816l-5.898 5.753c-.228.223-.593.218-.816-.01M15.691 30.286l-1.122-1.15c-.223-.228-.218-.593.01-.816l7.598-7.413c.228-.222.594-.217.816.01l1.123 1.15c.222.229.217.594-.01.817l-7.6 7.412c-.227.223-.592.219-.815-.01M1.286 22.498l-1.122-1.15c-.222-.228-.218-.593.01-.816l9.988-9.746c.228-.223.593-.218.816.01l1.122 1.15c.223.228.218.593-.01.816l-9.988 9.746c-.228.223-.593.218-.816-.01" mask="url(#vgknso8n1b)"/>
        <path fill="#EC9B26" d="M3.672 19.657l1.15-1.123c.228-.222.593-.218.816.01l5.89 6.032c.223.228.218.593-.01.816l-1.15 1.123c-.228.222-.593.218-.816-.01l-5.89-6.033c-.223-.228-.219-.593.01-.815M7.983 15.45l1.15-1.123c.228-.222.593-.218.816.01l7.413 7.598c.223.228.219.593-.01.816l-1.15 1.122c-.228.222-.593.218-.816-.01l-7.413-7.597c-.223-.229-.218-.594.01-.816" mask="url(#vgknso8n1b)"/>
    </g>
</svg>
