<svg id="Group_18520" data-name="Group 18520" xmlns="http://www.w3.org/2000/svg" width="146.963" height="68.235" viewBox="0 0 146.963 68.235">
  <path id="Path_25907" data-name="Path 25907" d="M180.281,361.332a3.276,3.276,0,0,0-3.276,3.276v34.321a17.512,17.512,0,1,0,32.241-9.467c-1.1,1.171-1.741,2-1.763,2.031l-2.507,3.2c-.078.1-.157.194-.23.286a10.963,10.963,0,1,1-21.188,3.952V388.787l2.689,2.746.441-.435a10.555,10.555,0,0,1,2.168-1.564l.174-.092a10.961,10.961,0,0,1,14.648,3.471L205.8,390.2a30.894,30.894,0,0,1,2.155-2.481,17.511,17.511,0,0,0-22.13-3.993,16.265,16.265,0,0,0-2.271,1.45V364.608a3.276,3.276,0,0,0-3.276-3.276" transform="translate(-139.629 -348.999)" fill="#fea821"/>
  <path id="Path_25908" data-name="Path 25908" d="M218.27,355.123a1.908,1.908,0,0,1,1.478.617,2.178,2.178,0,0,1,.563,1.529V370.84a10.483,10.483,0,0,1-1.249,5.169,9.073,9.073,0,0,1-3.429,3.516,10.8,10.8,0,0,1-10.145,0,9.025,9.025,0,0,1-3.446-3.516,10.474,10.474,0,0,1-1.249-5.169V357.268a2.045,2.045,0,0,1,.634-1.529,2.221,2.221,0,0,1,1.616-.617,2.08,2.08,0,0,1,1.46.617,2.023,2.023,0,0,1,.651,1.529V370.84a5.879,5.879,0,0,0,.755,3.041,5.4,5.4,0,0,0,4.659,2.691,5.825,5.825,0,0,0,2.813-.7,5.512,5.512,0,0,0,2.919-5.028V357.268a2.265,2.265,0,0,1,.528-1.53,1.8,1.8,0,0,1,1.441-.616" transform="translate(-143.157 -348.077)" fill="#082b7b"/>
  <path id="Path_25909" data-name="Path 25909" d="M233.557,378.741a2.109,2.109,0,0,1-.6,1.53,2.165,2.165,0,0,1-3.023,0,2.108,2.108,0,0,1-.6-1.53V357.192a2.109,2.109,0,0,1,.6-1.53,2.167,2.167,0,0,1,3.023,0,2.113,2.113,0,0,1,.6,1.53Z" transform="translate(-147.392 -348.066)" fill="#082b7b"/>
  <path id="Path_25910" data-name="Path 25910" d="M257.988,355.165a2.554,2.554,0,0,1,1.53.562,1.791,1.791,0,0,1,.757,1.513,2.243,2.243,0,0,1-.494,1.336L245.47,377l-.422-.141H258.2a2.225,2.225,0,0,1,1.53.545,1.856,1.856,0,0,1,.616,1.459,1.918,1.918,0,0,1-.616,1.459,2.142,2.142,0,0,1-1.53.581H241.356a2.19,2.19,0,0,1-1.582-.651,1.961,1.961,0,0,1-.668-1.424,2.254,2.254,0,0,1,.492-1.336L253.944,359l.317.211h-12.9a2.18,2.18,0,0,1-1.53-.563,1.907,1.907,0,0,1-.616-1.478,1.852,1.852,0,0,1,.616-1.46,2.228,2.228,0,0,1,1.53-.545Z" transform="translate(-148.841 -348.083)" fill="#082b7b"/>
  <path id="Path_25911" data-name="Path 25911" d="M231.435,351.432a1.97,1.97,0,0,1-2.183-1.851,2.184,2.184,0,0,1,4.366,0v0a2.975,2.975,0,0,1-2.183,2.934Z" transform="translate(-147.379 -346.942)" fill="#082b7b"/>
  <path id="Path_25912" data-name="Path 25912" d="M203.3,401.451a.275.275,0,0,1-.011-.55,2.627,2.627,0,0,0,.577-.122.275.275,0,1,1,.161.526,3.056,3.056,0,0,1-.716.146Zm1.56-.512a.276.276,0,0,1-.126-.52c.182-.094.367-.2.548-.318a.275.275,0,1,1,.3.463c-.2.126-.4.241-.593.343a.275.275,0,0,1-.127.031m1.371-.915a.275.275,0,0,1-.175-.488c.161-.132.324-.274.482-.423a.275.275,0,0,1,.376.4c-.167.156-.338.307-.509.447a.274.274,0,0,1-.174.062m1.187-1.143a.275.275,0,0,1-.2-.46c.14-.157.282-.322.42-.491a.275.275,0,1,1,.427.348c-.143.175-.29.347-.438.511a.276.276,0,0,1-.2.092m1.042-1.28a.276.276,0,0,1-.216-.445l.407-.52a.275.275,0,0,1,.433.339l-.407.52a.278.278,0,0,1-.217.106m1.019-1.3a.275.275,0,0,1-.216-.445l.408-.52a.275.275,0,0,1,.434.34l-.408.52a.277.277,0,0,1-.217.106m1.019-1.3a.283.283,0,0,1-.168-.057.276.276,0,0,1-.05-.383c.027-.038.165-.232.418-.532a.275.275,0,0,1,.421.354c-.259.308-.39.5-.391.5l-.009.013a.28.28,0,0,1-.221.107m1.077-1.255a.268.268,0,0,1-.191-.078.275.275,0,0,1-.006-.389c.153-.158.314-.317.478-.472a.275.275,0,1,1,.379.4c-.158.15-.314.3-.462.457a.275.275,0,0,1-.2.083m1.209-1.126a.275.275,0,0,1-.177-.485c.17-.144.346-.286.52-.423a.275.275,0,0,1,.34.434c-.17.133-.341.271-.505.41a.278.278,0,0,1-.178.065m1.311-1.006a.28.28,0,0,1-.227-.117.277.277,0,0,1,.07-.384c.182-.127.37-.252.557-.372a.275.275,0,1,1,.3.462c-.181.118-.363.238-.54.362a.276.276,0,0,1-.158.049m48.388-.846a.279.279,0,0,1-.2-.088,2.135,2.135,0,0,0-.22-.2.276.276,0,0,1,.346-.429,2.838,2.838,0,0,1,.278.25.276.276,0,0,1-.015.389.271.271,0,0,1-.187.073m-46.991-.033a.275.275,0,0,1-.135-.514c.192-.109.392-.217.589-.319a.275.275,0,1,1,.253.488c-.192.1-.383.2-.571.31a.278.278,0,0,1-.135.036m45.92-.741a.275.275,0,0,1-.137-.037c-.178-.1-.369-.2-.566-.3a.275.275,0,1,1,.241-.494c.209.1.41.209.6.318a.276.276,0,0,1-.138.514m-44.449-.005a.275.275,0,0,1-.113-.526c.2-.091.411-.18.617-.264a.275.275,0,0,1,.208.51c-.2.082-.4.167-.6.255a.28.28,0,0,1-.113.025m18.472-.359h0q-.346,0-.664-.01a.275.275,0,0,1,.013-.55q.314.008.656.01a.275.275,0,0,1,0,.55m.99,0a.275.275,0,0,1,0-.55c.212,0,.431-.006.657-.01h.006a.276.276,0,0,1,.006.551l-.663.01Zm1.65-.039a.275.275,0,0,1-.009-.549l.374-.015.23-.05a.276.276,0,0,1,.118.538l-.254.055a.226.226,0,0,1-.048.006c-.136.006-.271.011-.4.014Zm-4.289,0h-.014c-.226-.011-.449-.026-.664-.041a.275.275,0,1,1,.04-.549c.211.016.431.029.652.04a.276.276,0,0,1-.014.551m-1.642-.134-.032,0c-.223-.026-.446-.055-.662-.087a.276.276,0,0,1,.081-.545c.21.031.427.06.645.085a.275.275,0,0,1-.032.548m-13.648-.07a.275.275,0,0,1-.089-.535c.21-.072.424-.142.638-.206a.275.275,0,0,1,.158.526c-.206.063-.414.13-.618.2a.272.272,0,0,1-.089.015m21.2-.069a.275.275,0,0,1-.056-.544q.328-.069.65-.133a.275.275,0,0,1,.107.54l-.646.131a.31.31,0,0,1-.055.006m20.222-.023a.283.283,0,0,1-.1-.019c-.194-.076-.4-.15-.608-.22a.276.276,0,0,1,.176-.522c.217.073.429.15.632.23a.275.275,0,0,1-.1.531m-29.4-.094a.282.282,0,0,1-.054-.005c-.226-.044-.441-.091-.651-.138a.275.275,0,1,1,.119-.537c.206.045.417.09.639.135a.275.275,0,0,1-.054.545m10.8-.2a.275.275,0,0,1-.05-.545q.33-.061.652-.118a.275.275,0,0,1,.1.543c-.214.037-.43.076-.648.117a.334.334,0,0,1-.049,0m-21.239-.076a.275.275,0,0,1-.065-.542c.214-.052.433-.1.653-.147a.275.275,0,1,1,.112.539c-.213.043-.427.092-.634.143a.288.288,0,0,1-.066.008m8.829-.075a.339.339,0,0,1-.059-.006c-.24-.053-.443-.095-.639-.131a.275.275,0,1,1,.1-.541c.2.037.408.081.652.135a.275.275,0,0,1-.058.543m29.443-.066a.3.3,0,0,1-.072-.009c-.205-.056-.417-.11-.63-.159a.275.275,0,1,1,.125-.537c.219.052.438.106.65.163a.275.275,0,0,1-.072.541m-15.408-.066a.275.275,0,0,1-.043-.546q.331-.054.655-.1a.275.275,0,1,1,.083.544q-.321.049-.649.1a.274.274,0,0,1-.045,0M221.7,388.6a.275.275,0,0,1-.042-.547c.219-.033.441-.064.663-.089a.275.275,0,1,1,.064.547c-.215.025-.433.054-.644.086a.248.248,0,0,1-.042,0m5.589-.045-.037,0c-.209-.029-.427-.053-.645-.074a.275.275,0,1,1,.053-.548c.225.022.448.047.664.076a.275.275,0,0,1-.036.548m17.289-.087a.276.276,0,0,1-.037-.548q.332-.045.658-.086a.275.275,0,0,1,.068.546l-.651.086-.038,0m-21.238-.045a.275.275,0,0,1-.019-.549c.221-.014.446-.025.669-.032a.275.275,0,1,1,.018.549c-.216.008-.435.019-.65.031h-.018m33.4-.008a.248.248,0,0,1-.049,0c-.21-.039-.427-.076-.643-.109a.275.275,0,1,1,.083-.544c.221.034.444.072.659.112a.275.275,0,0,1-.05.546m-31.1-.006h-.014c-.208-.011-.427-.02-.652-.026a.275.275,0,1,1,.014-.549c.229.006.453.014.665.025a.275.275,0,0,1-.014.55m20.568-.143a.275.275,0,0,1-.029-.549q.333-.036.66-.068a.276.276,0,0,1,.054.548q-.323.031-.654.067l-.031,0m8.9-.094a.2.2,0,0,1-.032,0c-.212-.024-.431-.047-.651-.067a.275.275,0,1,1,.051-.548c.224.02.446.044.663.069a.275.275,0,0,1-.031.548m-7.251-.06a.275.275,0,0,1-.022-.549c.224-.018.445-.034.662-.048a.275.275,0,0,1,.037.549c-.215.015-.434.03-.655.047h-.021m5.607-.082h-.016q-.321-.018-.655-.032a.275.275,0,0,1,.023-.549c.226.009.447.02.664.032a.275.275,0,0,1-.016.55m-3.96-.02a.275.275,0,0,1-.012-.55c.225-.009.446-.018.664-.024a.275.275,0,1,1,.015.55q-.323.009-.655.024Zm2.311-.038h0c-.152,0-.3,0-.46,0h-.195a.272.272,0,0,1-.277-.273.275.275,0,0,1,.274-.277h.2l.467,0a.275.275,0,0,1,0,.55" transform="translate(-143.488 -352.868)" fill="#020202"/>
  <path id="Path_25913" data-name="Path 25913" d="M237.679,396.971a9.77,9.77,0,0,0-1.938-2.953,9.238,9.238,0,0,0-2.814-2.01,7.928,7.928,0,0,0-3.373-.735,8.614,8.614,0,0,0-4.369,1.19,9.013,9.013,0,0,0-3.338,3.407,10.618,10.618,0,0,0-1.277,5.364,9.88,9.88,0,0,0,1.17,4.825,8.577,8.577,0,0,0,3.356,3.372,10.9,10.9,0,0,0,8.546.665,8.134,8.134,0,0,0,2.552-1.346,2.183,2.183,0,0,0,.978-1.713,1.76,1.76,0,0,0-1.771-1.749h-.01a2.681,2.681,0,0,0-1.188.315q-.386.211-.857.508a4.606,4.606,0,0,1-1.241.506,8.107,8.107,0,0,1-2.062.21,5.412,5.412,0,0,1-5.316-4.4h11.539a2.229,2.229,0,0,0,1.467-.524,1.8,1.8,0,0,0,.663-1.364,8.988,8.988,0,0,0-.716-3.563m-12.7,1.154a4.553,4.553,0,0,1,1.048-1.783,3.737,3.737,0,0,1,1.574-.945,6.619,6.619,0,0,1,1.956-.279,4.586,4.586,0,0,1,2.045.473,4.7,4.7,0,0,1,1.609,1.277,3.2,3.2,0,0,1,.716,1.817v.244h-9.16a6.266,6.266,0,0,1,.212-.8" transform="translate(-146.091 -353.44)" fill="#fea821"/>
  <path id="Path_25914" data-name="Path 25914" d="M260.221,396.972a9.765,9.765,0,0,0-1.938-2.953,9.269,9.269,0,0,0-2.815-2.01,7.948,7.948,0,0,0-3.373-.734,8.627,8.627,0,0,0-4.37,1.189,9.014,9.014,0,0,0-3.336,3.408,10.593,10.593,0,0,0-1.277,5.365,9.852,9.852,0,0,0,1.17,4.822,8.562,8.562,0,0,0,3.357,3.374,10.888,10.888,0,0,0,8.545.663,8.088,8.088,0,0,0,2.551-1.346,2.187,2.187,0,0,0,.979-1.712,1.762,1.762,0,0,0-1.775-1.749h-.008a2.666,2.666,0,0,0-1.187.315q-.386.211-.857.508a4.647,4.647,0,0,1-1.241.507,8.145,8.145,0,0,1-2.062.209,5.42,5.42,0,0,1-5.317-4.4h11.539a2.22,2.22,0,0,0,1.467-.525,1.8,1.8,0,0,0,.664-1.363,8.977,8.977,0,0,0-.717-3.564m-12.7,1.153a4.594,4.594,0,0,1,1.048-1.782,3.756,3.756,0,0,1,1.575-.944,6.6,6.6,0,0,1,1.957-.281,4.57,4.57,0,0,1,2.043.474,4.679,4.679,0,0,1,1.608,1.275,3.182,3.182,0,0,1,.716,1.818v.244h-9.157a5.96,5.96,0,0,1,.21-.8" transform="translate(-149.435 -353.44)" fill="#fea821"/>
  <path id="Path_25915" data-name="Path 25915" d="M269.916,385.106l-5.874,9.4,4.877,9.584,10.75.183,5.874-9.4-4.878-9.584Z" transform="translate(-152.54 -352.525)" fill="#082b7b"/>
  <path id="Path_25916" data-name="Path 25916" d="M289.869,397.723l-4.794,7.672,3.981,7.821,8.774.149,4.794-7.672-3.98-7.82Z" transform="translate(-155.66 -354.397)" fill="#082b7b"/>
  <path id="Path_25917" data-name="Path 25917" d="M291.09,381.6l-3.784,6.054,3.142,6.172,6.925.118,3.784-6.054-3.141-6.172Z" transform="translate(-155.991 -352.006)" fill="#fea821"/>
  <path id="Path_25918" data-name="Path 25918" d="M289.136,417.658l-2.431,3.889,2.018,3.966,4.449.076,2.431-3.89-2.018-3.966Z" transform="translate(-155.902 -357.354)" fill="#fea821"/>
  <path id="Path_25919" data-name="Path 25919" d="M275.7,409.245l-3.783,6.054,3.141,6.172,6.925.118,3.784-6.054-3.142-6.173Z" transform="translate(-153.708 -356.106)" fill="#082b7b"/>
  <path id="Path_25920" data-name="Path 25920" d="M268.937,409.165l-1.288,2.027,1,2.06,2.291.033,1.288-2.028-1-2.06Z" transform="translate(-153.075 -356.094)" fill="#fea821"/>
  <path id="Path_25921" data-name="Path 25921" d="M273.616,409.243l-.355.616.322.6.678-.02.355-.615-.322-.6Z" transform="translate(-153.908 -356.103)" fill="#fff"/>
  <path id="Path_25922" data-name="Path 25922" d="M194.458,401.321l-1.973-3.386a1.96,1.96,0,0,0-.864,2.2,1.456,1.456,0,0,0,.047.138l2.586,1.144a1.892,1.892,0,0,0,.205-.1" transform="translate(-141.786 -354.428)" fill="#fea821"/>
  <path id="Path_25923" data-name="Path 25923" d="M193.883,401.836a1.957,1.957,0,0,1-2.369-1.22l-.851-.376a1.96,1.96,0,0,0,3.584,1.586l-.146-.065a1.942,1.942,0,0,1-.217.075" transform="translate(-141.632 -354.77)" fill="#fea821"/>
  <path id="Path_25924" data-name="Path 25924" d="M194.058,401.9a1.8,1.8,0,0,0,.216-.074l-2.586-1.145a1.957,1.957,0,0,0,2.369,1.219" transform="translate(-141.807 -354.837)"/>
  <path id="Path_25925" data-name="Path 25925" d="M201.461,405.726c-.6.169-1.579-.83-1.983-1.943-.33-.909-.167-1.845.436-2.015a1.36,1.36,0,0,1,1.059.268,2.5,2.5,0,0,0-1.154-.622c-1.4-.311-3.975-.19-6.8,2.639a2.875,2.875,0,0,0-.7,1.088c-.345,1-.08,2.14,2.12,2.753,1.324.269,2.813.247,2.421,1.455.854,0,5.494-.034,5.21-4.573-.006-.083-.013-.161-.02-.238-.02.611-.219,1.082-.594,1.187" transform="translate(-141.883 -354.927)" fill="#fea821"/>
  <path id="Path_25926" data-name="Path 25926" d="M202.321,402.751c.3-.117.7.187.892.68s.1.985-.206,1.1-.7-.188-.892-.68-.1-.984.206-1.1" transform="translate(-143.339 -355.139)" fill="#ff243a"/>
  <path id="Path_25927" data-name="Path 25927" d="M198.975,401.322s-1.529,4.318,3.34,5.972a3.434,3.434,0,0,1-1.263,1.258,6.488,6.488,0,0,1-3.771-6.853,5.9,5.9,0,0,1,1.694-.376" transform="translate(-142.627 -354.931)"/>
  <path id="Path_25928" data-name="Path 25928" d="M193.908,403.662a9.423,9.423,0,0,1,1.293-.974,8.593,8.593,0,0,0,3.481,6.738,8.459,8.459,0,0,1-1.572.132c.341-1.053-.743-1.171-1.9-1.362,0,0-1.668-2.435-1.3-4.534" transform="translate(-142.128 -355.134)"/>
  <path id="Path_25929" data-name="Path 25929" d="M146.589,366.6a4.783,4.783,0,0,1-.439-3.609,5.607,5.607,0,0,1,.312-.916,5.978,5.978,0,0,1,.473-.851,6.364,6.364,0,0,1,.6-.773c.109-.122.236-.227.353-.341a3.511,3.511,0,0,1,.375-.318,6.008,6.008,0,0,1,1.721-.929l.469-.139a4.383,4.383,0,0,1,.479-.093,5.685,5.685,0,0,1,.962-.078,4.757,4.757,0,0,1,3.378,1.349,9.361,9.361,0,0,0-3.209.234A7.234,7.234,0,0,0,149.5,361.4a6.357,6.357,0,0,0-1.03.972c-.169.172-.294.377-.45.565l-.2.307-.1.153-.087.163a9.3,9.3,0,0,0-1.044,3.044" transform="translate(-135.027 -348.587)" fill="#082b7b"/>
  <path id="Path_25930" data-name="Path 25930" d="M168.553,399.322V364.868a17.915,17.915,0,0,0-17.384-18.014,17.721,17.721,0,1,0,8.456,33.108,17.142,17.142,0,0,0,2.3-1.468v20.829a3.313,3.313,0,1,0,6.627,0m-6.626-24.483-2.725-2.777-.449.437a10.52,10.52,0,0,1-2.194,1.582l-.176.094a11.092,11.092,0,1,1,5.542-9.6Z" transform="translate(-133.118 -346.85)" fill="#082b7b"/>
</svg>
